<svg id="Layer_1" data-name="Layer 1" xmlns="http://www.w3.org/2000/svg" viewBox="0 0 12 14"><defs><style>.cls-1{fill:#4dc0f4;}.cls-2{fill:#153768;}.cls-3{fill:#e5e013;}.cls-4{fill:#eaea0f;}.cls-5{fill:none;}.cls-6{fill:#fff;}</style></defs><title>portfolio_icon</title><polyline class="cls-1" points="8 14 8 2 10 0 9.5 0.5 9.5 0.5 8 2 0 2"/><polygon class="cls-2" points="0 14 8 14 12 10 12 7 10 9 10 0 2 0 0 2 0 14"/><path class="cls-3" d="M6,8c.55,0,1-.22,1-.5S6.55,7,6,7Z" transform="translate(-2 -1)"/><path class="cls-4" d="M6,11c.55,0,1-.22,1-.5S6.55,10,6,10Z" transform="translate(-2 -1)"/><line class="cls-5" x1="8" y1="2" x2="8" y2="14"/><line class="cls-5" y1="2" x2="2"/><polyline class="cls-6" points="10 0 8 2 0 2"/><line class="cls-5" y1="2" x2="2"/></svg>